<?xml version="1.0" standalone="no"?>
<!DOCTYPE svg PUBLIC "-//W3C//DTD SVG 20010904//EN"
 "http://www.w3.org/TR/2001/REC-SVG-20010904/DTD/svg10.dtd">
<svg version="1.0" xmlns="http://www.w3.org/2000/svg"
 width="512.000000pt" height="512.000000pt" viewBox="0 0 512.000000 512.000000"
 preserveAspectRatio="xMidYMid meet">
<metadata>
Created by potrace 1.11, written by Peter Selinger 2001-2013
</metadata>
<g transform="translate(0.000000,512.000000) scale(0.100000,-0.100000)"
fill="#000000" stroke="none">
<path d="M0 2560 l0 -2560 2560 0 2560 0 0 2560 0 2560 -2560 0 -2560 0 0
-2560z m942 799 c77 -16 163 -65 213 -121 45 -50 105 -146 105 -167 0 -6 -15
-11 -33 -11 -28 0 -38 8 -79 64 -58 81 -125 130 -205 152 -153 42 -300 -20
-395 -168 -29 -44 -35 -48 -70 -48 l-39 0 33 62 c101 190 275 278 470 237z
m1382 -4 c114 -30 215 -112 274 -222 17 -33 32 -64 32 -67 0 -3 -17 -6 -38 -6
-32 0 -41 5 -50 25 -11 24 -15 25 -64 19 -29 -4 -71 -13 -93 -22 -22 -8 -69
-17 -105 -19 l-65 -5 23 25 c29 31 130 77 183 84 22 3 42 9 44 13 9 14 -113
87 -166 100 -141 34 -286 -30 -380 -169 -31 -45 -38 -51 -71 -51 -36 0 -37 1
-28 26 18 45 79 131 124 172 106 98 243 133 380 97z m2686 5 c0 -6 -13 -74
-30 -152 -16 -77 -30 -143 -30 -145 0 -1 -16 -3 -35 -3 -41 0 -40 -3 -20 110
20 116 21 114 -16 106 -77 -15 -174 -89 -226 -171 -25 -40 -32 -45 -65 -45
-21 0 -38 4 -38 8 0 5 16 35 36 68 89 149 219 228 387 233 20 0 37 -4 37 -9z
m-1238 -38 c91 -45 176 -139 220 -244 6 -15 2 -18 -30 -18 -32 0 -41 5 -56 32
-81 136 -233 215 -366 190 -33 -6 -75 -18 -94 -27 -52 -25 -119 -87 -156 -145
-30 -46 -35 -50 -72 -50 l-39 0 32 61 c38 71 105 149 155 180 79 48 123 59
234 56 96 -2 111 -5 172 -35z m-3512 -1256 c0 -8 -9 -58 -20 -111 -27 -130
-27 -128 13 -120 85 19 165 82 227 181 37 59 43 64 75 64 19 0 35 -5 35 -11 0
-26 -69 -138 -118 -191 -81 -87 -202 -138 -329 -138 l-31 0 13 53 c7 28 25
105 40 170 l27 117 34 0 c22 0 34 -5 34 -14z m960 -42 c42 -75 109 -140 178
-172 47 -22 71 -27 137 -27 71 0 89 4 147 33 72 35 139 102 180 179 21 39 26
43 61 43 35 0 38 -2 31 -22 -14 -46 -68 -131 -116 -184 -156 -170 -426 -177
-587 -15 -44 43 -99 127 -128 194 -13 27 -12 27 26 27 37 0 41 -3 71 -56z
m1362 7 c44 -77 113 -147 176 -178 49 -24 69 -28 142 -28 76 0 93 3 152 33 72
35 139 102 180 179 21 39 26 43 61 43 35 0 38 -2 32 -22 -15 -48 -71 -135
-122 -189 -37 -39 -75 -67 -126 -90 -68 -32 -79 -34 -177 -34 -99 0 -110 2
-171 32 -97 48 -184 147 -234 266 l-15 37 37 0 c35 0 40 -4 65 -49z m1375 -4
c75 -124 170 -192 285 -204 144 -15 258 51 349 200 32 52 37 56 72 57 l37 0
-15 -37 c-91 -219 -271 -330 -477 -295 -153 26 -274 131 -343 295 l-15 37 37
0 c35 -1 41 -5 70 -53z"/>
</g>
</svg>
