<svg xmlns="http://www.w3.org/2000/svg" viewBox="0 0 1920 224"><defs><style>.cls-1{fill:#0d0911;fill-rule:evenodd;}</style></defs><title>Landscape</title><g id="Content"><polygon class="cls-1" points="1918.74 20.65 1910.09 28.85 1898.46 32.42 1886.76 35.62 1874.41 35.02 1864.61 48.14 1853.14 48.18 1842.02 48.25 1830.94 51.23 1820.09 47.56 1809.29 44.65 1797.89 43.99 1786.4 44.47 1774.27 58.57 1762.01 56.44 1749.77 56.98 1737.58 56.32 1725.39 49.2 1713.27 50.02 1701.26 51.14 1690.1 54.84 1678.34 54.32 1667.22 51.3 1656.04 55.22 1645.23 51.04 1634.06 50.27 1622 54.96 1609.94 54.83 1597.86 46.3 1585.47 46.4 1573.79 44.44 1561.99 43.62 1550.68 40.06 1540.69 34.46 1530.17 32.53 1518.56 37.15 1512.45 28.5 1501.97 25.22 1491.92 20.72 1480.43 19.72 1468.83 22.68 1456.94 23.07 1444.88 23.26 1434.4 16.04 1421.27 19.56 1411.83 11.42 1399.45 11.28 1389.43 5.54 1378.34 3.69 1366.7 0 1359.58 8.63 1349.62 13.37 1339.69 17.16 1329.56 19.11 1319.27 22.06 1308.36 20.91 1298.32 16.44 1286.64 17.75 1276.14 10.94 1266.03 13.26 1254.01 12.56 1245.46 18.59 1233.57 19.75 1223.4 25.08 1213.14 30.32 1201.98 32.91 1188.03 29.46 1175.94 31.09 1164.69 36.47 1156.32 41.81 1147.09 45.99 1136 47.64 1126.54 51.5 1116.23 48.56 1106.33 44.56 1095.85 40.73 1089.63 30.83 1078.03 34.98 1066.63 39.6 1053.26 38.19 1041.82 42.38 1032.47 47.61 1019.84 48.72 1012.67 56.77 1002.58 61.17 990.84 60.8 980.92 65.49 971.32 70.19 960.17 72.78 952.33 79.82 940.98 82.27 931.16 86.58 922.16 92.19 912.84 98.1 901.09 98.7 890.3 100.43 879.08 102.77 873.96 112.12 866.11 118.13 856.87 123.06 849.1 129.47 839.16 134.15 828.13 136.65 817.02 138.61 804.96 126.73 798.74 135.93 785.82 137.92 776.28 141.99 766.14 144.33 758.85 138.14 745.98 136.22 734.21 141.48 721.16 141.7 708.49 138.84 696.79 142.1 684.71 141.32 673.19 138.24 660.52 133.26 647.56 129.69 637.34 130.6 627.2 125.56 615.87 126.36 604.16 126.03 594 121.16 583.02 136.71 574.95 127.61 561.82 129.93 551.68 125.32 540.87 121.22 529.08 119.77 518.01 126.1 505.69 126.98 493.84 129.08 481.89 129.12 472.5 130.11 464.12 127.62 452.07 127.06 440.96 131.79 429.59 130.44 419.18 127.68 409.49 123.27 401.62 116.91 393.25 110.84 383.39 105.14 368.83 109.31 355.8 104.41 342 105.23 330.74 100.13 319.88 103.86 307.91 100.68 296.61 93.3 282.68 95.37 267.63 111.26 258.17 108.68 249.59 103.69 238.97 105.88 229.34 104.48 219.08 103.2 206.99 99.44 194.22 103.87 182.95 98.61 174.26 89.52 161.19 87.02 148.94 95.44 136.9 95.73 125.47 103.39 115.31 98.07 104.18 104.43 94.21 99.52 86.47 92.32 76.22 87.82 67.44 81.68 58.36 75.69 47.13 73.04 36.24 68.73 24.52 66.38 12.53 65.05 0.54 64.14 0 63.93 0 224 1920 224 1920 20.13 1918.74 20.65"/></g></svg>